<svg width="426" height="574" viewBox="0 0 426 574" fill="none" xmlns="http://www.w3.org/2000/svg">
<path d="M113 455L175 388L168.04 276M393 190C359.667 186 291.4 178.2 285 179C278.6 179.8 201.667 200.667 164 211L168.04 276M168.04 276L267 248L356 257" stroke="#15FF00"/>
<path d="M207 441L228 323L257 375L271 441L305 336L338 307" stroke="#15FF00"/>
<path d="M404 132L324 21L129 31L16 229L40 492L163 561L291 514L411 416" stroke="#15FF00"/>
<path d="M418.331 419.834L412.459 419.702C412.074 419.693 411.7 419.833 411.415 420.092L407.448 423.703C407.11 424.01 406.572 423.743 406.613 423.289L407.091 417.945C407.125 417.562 407.011 417.18 406.771 416.878L403.115 412.28C402.833 411.925 403.131 411.408 403.58 411.474L408.872 412.258C409.34 412.328 409.814 412.172 410.149 411.838L414.378 407.632C414.716 407.295 415.289 407.579 415.226 408.053L414.431 413.964C414.368 414.433 414.53 414.905 414.869 415.236L418.692 418.977C419.017 419.294 418.785 419.845 418.331 419.834Z" fill="#15FF00" stroke="#15FF00"/>
<path d="M296.878 507.336L295.423 513.028C295.327 513.401 295.379 513.796 295.567 514.132L298.19 518.813C298.412 519.21 298.031 519.674 297.598 519.532L292.5 517.86C292.134 517.74 291.736 517.765 291.388 517.931L286.083 520.454C285.674 520.649 285.237 520.242 285.403 519.82L287.362 514.842C287.535 514.401 287.49 513.904 287.24 513.502L284.097 508.433C283.846 508.027 284.252 507.533 284.699 507.702L290.278 509.81C290.721 509.978 291.217 509.926 291.616 509.671L296.124 506.791C296.506 506.547 296.99 506.897 296.878 507.336Z" fill="#15FF00" stroke="#15FF00"/>
<path d="M170.919 555.366L167.214 559.924C166.971 560.223 166.852 560.604 166.882 560.988L167.302 566.336C167.338 566.791 166.797 567.052 166.463 566.742L162.535 563.087C162.253 562.825 161.881 562.681 161.496 562.686L155.622 562.754C155.168 562.76 154.943 562.207 155.27 561.893L159.134 558.194C159.476 557.866 159.644 557.397 159.586 556.927L158.855 551.007C158.797 550.533 159.373 550.255 159.708 550.596L163.89 554.847C164.222 555.185 164.694 555.346 165.163 555.282L170.463 554.555C170.913 554.494 171.205 555.014 170.919 555.366Z" fill="#15FF00" stroke="#15FF00"/>
<path d="M53.8667 498.067L43.0112 498.141C42.6253 498.144 42.2552 498.295 41.978 498.564L34.8661 505.451C34.5441 505.763 34.0061 505.526 34.0185 505.078L34.2929 495.182C34.3036 494.796 34.1652 494.421 33.9064 494.134L26.6284 486.08C26.3195 485.738 26.5983 485.195 27.0561 485.248L37.1268 486.397C37.5968 486.451 38.0645 486.28 38.3888 485.936L45.9808 477.877C46.3037 477.534 46.878 477.787 46.8434 478.256L46.0291 489.298C45.9943 489.77 46.184 490.23 46.541 490.541L54.1913 497.19C54.5391 497.492 54.3275 498.064 53.8667 498.067Z" fill="#15FF00" stroke="#15FF00"/>
<path d="M23.0934 235.481L17.1863 234.005C16.8119 233.911 16.4158 233.966 16.0805 234.157L11.278 236.891C10.8884 237.113 10.4263 236.75 10.5499 236.319L12.074 231.007C12.1804 230.636 12.1397 230.238 11.9604 229.896L9.13196 224.505C8.91789 224.096 9.32296 223.641 9.75337 223.805L14.9665 225.799C15.4082 225.968 15.9038 225.919 16.3037 225.666L21.4923 222.388C21.8903 222.136 22.3836 222.524 22.2332 222.97L20.2717 228.786C20.1205 229.234 20.1896 229.727 20.4581 230.117L23.6263 234.712C23.8879 235.091 23.5405 235.592 23.0934 235.481Z" fill="#15FF00" stroke="#15FF00"/>
<path d="M145.86 22.0516L136.703 32.6862C136.451 32.9786 136.321 33.3569 136.341 33.7423L137.002 46.5405C137.025 46.9882 136.493 47.2378 136.164 46.9337L126.747 38.2412C126.464 37.9795 126.09 37.8371 125.704 37.8436L111.672 38.0832C111.212 38.0911 110.986 37.5244 111.327 37.2138L121.06 28.3375C121.409 28.0188 121.588 27.5539 121.542 27.0831L120.144 12.7901C120.098 12.3216 120.666 12.0551 120.997 12.39L131.091 22.605C131.424 22.9414 131.896 23.1013 132.364 23.0365L145.412 21.23C145.869 21.1668 146.16 21.7024 145.86 22.0516Z" fill="#15FF00" stroke="#15FF00"/>
<path d="M326.406 26.14L323.204 22.9788C322.929 22.7076 322.561 22.5528 322.175 22.5464L318.107 22.4795C317.659 22.4721 317.446 21.9241 317.771 21.6162L320.728 18.8211C321.009 18.556 321.176 18.1929 321.196 17.8075L321.425 13.3137C321.449 12.8535 322.03 12.6673 322.316 13.0282L324.844 16.2096C325.138 16.58 325.59 16.7899 326.062 16.776L330.553 16.6437C331.024 16.6299 331.251 17.2148 330.895 17.5222L327.491 20.4557C327.133 20.7645 326.941 21.2242 326.974 21.6961L327.256 25.7495C327.288 26.2092 326.734 26.4638 326.406 26.14Z" fill="#15FF00" stroke="#15FF00"/>
<path d="M412.548 122.88L407.96 128.533C407.717 128.833 407.599 129.215 407.63 129.6L408.164 136.198C408.2 136.645 407.676 136.91 407.337 136.615L402.344 132.269C402.053 132.016 401.676 131.884 401.29 131.902L394.017 132.239C393.557 132.26 393.315 131.7 393.647 131.38L398.478 126.708C398.818 126.38 398.983 125.91 398.923 125.441L397.991 118.128C397.932 117.661 398.492 117.378 398.833 117.704L404.165 122.793C404.507 123.12 404.983 123.266 405.45 123.187L412.076 122.072C412.531 121.995 412.838 122.522 412.548 122.88Z" fill="#15FF00" stroke="#15FF00"/>
<path d="M404.893 200.971L393.299 196.447C392.94 196.307 392.54 196.311 392.183 196.458L381.68 200.78C381.266 200.951 380.853 200.532 381.031 200.12L385.522 189.689C385.675 189.334 385.685 188.934 385.551 188.573L381.214 176.908C381.054 176.476 381.513 176.075 381.919 176.293L392.188 181.804C392.605 182.028 393.103 182.042 393.532 181.842L405.057 176.467C405.483 176.268 405.923 176.716 405.718 177.139L400.158 188.576C399.951 189.001 399.957 189.499 400.174 189.919L405.519 200.276C405.73 200.686 405.322 201.139 404.893 200.971Z" fill="#15FF00" stroke="#15FF00"/>
<path d="M291.743 176.138L287.859 180.828C287.613 181.125 287.491 181.505 287.518 181.89L287.909 187.403C287.941 187.85 287.414 188.11 287.079 187.812L282.946 184.143C282.658 183.886 282.282 183.751 281.896 183.765L275.811 183.986C275.351 184.003 275.115 183.441 275.449 183.124L279.5 179.284C279.843 178.959 280.013 178.49 279.958 178.021L279.243 171.925C279.188 171.457 279.751 171.18 280.088 171.508L284.486 175.79C284.825 176.12 285.299 176.271 285.766 176.197L291.279 175.325C291.735 175.253 292.036 175.783 291.743 176.138Z" fill="#15FF00" stroke="#15FF00"/>
<path d="M181.181 199.887L173.574 210.723C173.352 211.039 173.261 211.428 173.319 211.81L175.13 223.759C175.197 224.203 174.692 224.504 174.335 224.233L164.688 216.952C164.38 216.719 163.994 216.614 163.611 216.659L150.46 218.19C150.003 218.243 149.723 217.701 150.031 217.359L158.333 208.13C158.649 207.778 158.781 207.298 158.689 206.834L156.048 193.555C155.956 193.093 156.495 192.772 156.857 193.073L167.278 201.717C167.642 202.019 168.127 202.132 168.587 202.021L180.655 199.114C181.103 199.006 181.446 199.51 181.181 199.887Z" fill="#15FF00" stroke="#15FF00"/>
<path d="M173.546 282.313L168.208 280.34C167.846 280.207 167.446 280.218 167.092 280.371L162.355 282.422C161.943 282.6 161.523 282.189 161.693 281.774L163.648 276.996C163.794 276.639 163.797 276.239 163.656 275.88L161.576 270.582C161.408 270.153 161.86 269.744 162.27 269.955L166.898 272.331C167.319 272.547 167.817 272.552 168.241 272.344L173.387 269.83C173.81 269.623 174.258 270.063 174.06 270.49L171.65 275.685C171.451 276.114 171.466 276.612 171.691 277.028L174.16 281.606C174.378 282.012 173.979 282.472 173.546 282.313Z" fill="#15FF00" stroke="#15FF00"/>
<path d="M240.246 326.482L231.23 326.624C230.844 326.63 230.475 326.785 230.2 327.056L224.351 332.822C224.032 333.136 223.492 332.905 223.5 332.456L223.654 324.244C223.662 323.858 223.52 323.485 223.259 323.2L217.153 316.564C216.841 316.225 217.115 315.68 217.574 315.728L225.908 316.604C226.378 316.654 226.844 316.478 227.165 316.131L233.393 309.401C233.713 309.056 234.29 309.303 234.259 309.773L233.666 318.923C233.636 319.395 233.83 319.854 234.189 320.161L240.563 325.602C240.913 325.901 240.707 326.475 240.246 326.482Z" fill="#15FF00" stroke="#15FF00"/>
<path d="M265.078 378.385L258.324 376.643C257.95 376.546 257.554 376.598 257.217 376.786L251.684 379.882C251.293 380.101 250.834 379.734 250.96 379.304L252.755 373.223C252.864 372.853 252.826 372.455 252.649 372.112L249.456 365.911C249.245 365.501 249.653 365.048 250.082 365.216L256.069 367.558C256.51 367.73 257.006 367.685 257.407 367.435L263.4 363.711C263.8 363.463 264.29 363.854 264.137 364.299L261.832 370.968C261.677 371.415 261.742 371.908 262.008 372.3L265.617 377.62C265.876 378.001 265.525 378.5 265.078 378.385Z" fill="#15FF00" stroke="#15FF00"/>
<path d="M276.563 441.119L272.02 441.493C271.635 441.525 271.278 441.704 271.022 441.992L268.284 445.075C267.987 445.41 267.432 445.215 267.411 444.767L267.214 440.649C267.196 440.263 267.03 439.9 266.75 439.634L263.448 436.491C263.114 436.174 263.351 435.612 263.812 435.629L267.928 435.787C268.401 435.805 268.854 435.599 269.152 435.232L272.016 431.691C272.312 431.325 272.904 431.534 272.905 432.005L272.913 436.558C272.914 437.031 273.137 437.476 273.517 437.759L276.821 440.219C277.19 440.495 277.022 441.081 276.563 441.119Z" fill="#15FF00" stroke="#15FF00"/>
<path d="M220.245 434.968L213.093 443.052C212.837 443.342 212.703 443.718 212.717 444.104L213.094 453.94C213.111 454.387 212.575 454.63 212.25 454.321L205.107 447.549C204.827 447.283 204.456 447.136 204.07 447.137L193.276 447.177C192.815 447.179 192.597 446.609 192.942 446.303L200.478 439.613C200.831 439.299 201.016 438.837 200.977 438.365L200.052 427.397C200.012 426.927 200.584 426.669 200.91 427.008L208.542 434.94C208.87 435.281 209.339 435.447 209.809 435.389L219.808 434.141C220.265 434.083 220.55 434.623 220.245 434.968Z" fill="#15FF00" stroke="#15FF00"/>
<path d="M299.315 329.071L305.559 332.706C305.893 332.9 306.288 332.959 306.664 332.869L313.052 331.337C313.488 331.233 313.831 331.711 313.592 332.09L310.092 337.65C309.887 337.976 309.815 338.369 309.892 338.748L311.332 345.828C311.424 346.28 310.908 346.604 310.541 346.326L305.224 342.303C304.846 342.018 304.357 341.927 303.902 342.058L296.875 344.088C296.423 344.218 296.057 343.708 296.326 343.322L300.502 337.317C300.772 336.929 300.844 336.436 300.694 335.987L298.589 329.661C298.444 329.223 298.917 328.839 299.315 329.071Z" fill="#15FF00" stroke="#15FF00"/>
<path d="M332.571 311.905L334.136 307.34C334.261 306.975 334.241 306.576 334.079 306.225L332.249 302.259C332.062 301.852 332.463 301.423 332.882 301.583L336.962 303.141C337.323 303.278 337.722 303.272 338.078 303.122L342.527 301.253C342.952 301.075 343.372 301.517 343.171 301.932L341.265 305.87C341.059 306.296 341.066 306.794 341.284 307.214L343.506 311.502C343.723 311.92 343.294 312.379 342.863 312.191L338.434 310.262C338 310.073 337.503 310.1 337.092 310.334L333.292 312.501C332.892 312.729 332.422 312.341 332.571 311.905Z" fill="#15FF00" stroke="#15FF00"/>
<path d="M282.044 256.881L271.654 255.687C271.27 255.643 270.885 255.748 270.577 255.981L262.975 261.736C262.617 262.007 262.112 261.707 262.178 261.264L263.594 251.834C263.651 251.452 263.559 251.063 263.337 250.748L257.316 242.196C257.051 241.819 257.393 241.315 257.842 241.422L267.33 243.694C267.79 243.804 268.275 243.691 268.639 243.388L276.834 236.57C277.196 236.269 277.735 236.589 277.644 237.051L275.579 247.51C275.488 247.974 275.62 248.454 275.937 248.805L282.472 256.05C282.781 256.392 282.502 256.934 282.044 256.881Z" fill="#15FF00" stroke="#15FF00"/>
<path d="M178.222 384.193L175.927 388.964C175.76 389.312 175.733 389.711 175.852 390.078L177.334 394.641C177.473 395.067 177.024 395.446 176.627 395.238L172.378 393.01C172.036 392.831 171.638 392.79 171.267 392.897L166.178 394.357C165.736 394.484 165.371 393.995 165.619 393.607L168.217 389.545C168.472 389.146 168.524 388.651 168.357 388.208L166.485 383.233C166.319 382.793 166.799 382.388 167.205 382.625L171.795 385.307C172.203 385.546 172.7 385.578 173.136 385.394L177.577 383.516C178.002 383.336 178.422 383.778 178.222 384.193Z" fill="#15FF00" stroke="#15FF00"/>
<path d="M123.958 455.221L116.562 457.447C116.192 457.558 115.88 457.808 115.689 458.143L112.222 464.256C112.001 464.646 111.418 464.57 111.304 464.137L109.512 457.342C109.414 456.968 109.175 456.647 108.846 456.446L102.263 452.405C101.871 452.164 101.985 451.565 102.439 451.486L109.478 450.264C109.944 450.184 110.345 449.888 110.559 449.466L114.106 442.484C114.319 442.065 114.942 442.145 115.041 442.606L116.688 450.261C116.787 450.724 117.099 451.112 117.529 451.309L124.023 454.288C124.442 454.48 124.4 455.088 123.958 455.221Z" fill="#15FF00" stroke="#15FF00"/>
<path d="M361.322 250.877L358.29 255.693C358.084 256.02 358.012 256.413 358.089 256.791L359.118 261.85C359.208 262.289 358.718 262.615 358.347 262.363L354.076 259.464C353.757 259.247 353.367 259.162 352.986 259.225L347.373 260.167C346.918 260.243 346.611 259.716 346.902 259.358L350.182 255.321C350.481 254.954 350.588 254.468 350.473 254.009L349.075 248.456C348.96 247.999 349.483 247.651 349.86 247.933L354.445 251.363C354.824 251.647 355.314 251.735 355.768 251.601L360.757 250.131C361.199 250 361.567 250.487 361.322 250.877Z" fill="#15FF00" stroke="#15FF00"/>
</svg>
